<?xml version="1.0"?>
<svg width="448" height="512" xmlns="http://www.w3.org/2000/svg" xmlns:svg="http://www.w3.org/2000/svg" xmlns:xlink="http://www.w3.org/1999/xlink">
 <!-- Created with SVG-edit - https://github.com/SVG-Edit/svgedit-->
 <defs>
  <symbol id="svg_1" viewBox="0 0 576 512" xmlns="http://www.w3.org/2000/svg">
   <!--! Font Awesome Pro 6.4.0 by @fontawesome - https://fontawesome.com License - https://fontawesome.com/license (Commercial License) Copyright 2023 Fonticons, Inc. -->
   <path d="m64,0c-35.3,0 -64,28.7 -64,64l0,384c0,35.3 28.7,64 64,64l256,0c35.3,0 64,-28.7 64,-64l0,-19.3c-2.7,1.1 -5.4,2 -8.2,2.7l-60.1,15c-3,0.7 -6,1.2 -9,1.4c-0.9,0.1 -1.8,0.2 -2.7,0.2l-64,0c-6.1,0 -11.6,-3.4 -14.3,-8.8l-8.8,-17.7c-1.7,-3.4 -5.1,-5.5 -8.8,-5.5s-7.2,2.1 -8.8,5.5l-8.8,17.7c-2.9,5.9 -9.2,9.4 -15.7,8.8s-12.1,-5.1 -13.9,-11.3l-16.9,-55.7l-9.8,32.8c-6.1,20.3 -24.8,34.2 -46,34.2l-8.2,0c-8.8,0 -16,-7.2 -16,-16s7.2,-16 16,-16l8.2,0c7.1,0 13.3,-4.6 15.3,-11.4l14.9,-49.5c3.4,-11.3 13.8,-19.1 25.6,-19.1s22.2,7.8 25.6,19.1l11.6,38.6c7.4,-6.2 16.8,-9.7 26.8,-9.7c15.9,0 30.4,9 37.5,23.2l4.4,8.8l8.9,0c-3.1,-8.8 -3.7,-18.4 -1.4,-27.8l15,-60.1c2.8,-11.3 8.6,-21.5 16.8,-29.7l94.8,-94.8l0,-43.6l-128,0c-17.7,0 -32,-14.3 -32,-32l0,-128l-160,0zm192,0l0,128l128,0l-128,-128zm293.8,139.7c-15.6,-15.6 -40.9,-15.6 -56.6,0l-29.4,29.4l71,71l29.4,-29.4c15.6,-15.6 15.6,-40.9 0,-56.6l-14.4,-14.4zm-237.9,181.3c-4.1,4.1 -7,9.2 -8.4,14.9l-15,60.1c-1.4,5.5 0.2,11.2 4.2,15.2s9.7,5.6 15.2,4.2l60.1,-15c5.6,-1.4 10.8,-4.3 14.9,-8.4l129.2,-129.3l-71,-71l-129.2,129.3z"/>
  </symbol>
 </defs>
 <g class="layer">
  <title>Layer 1</title>
  <use fill="#377dff" id="svg_2" transform="matrix(0.296296 0 0 0.296296 0 0)" x="0" xlink:href="#svg_1" y="0"/>
 </g>
</svg>