<?xml version="1.0"?>
<svg width="448" height="512" xmlns="http://www.w3.org/2000/svg" xmlns:svg="http://www.w3.org/2000/svg" xmlns:xlink="http://www.w3.org/1999/xlink">
 <!-- Created with SVG-edit - https://github.com/SVG-Edit/svgedit-->
 <defs>
  <symbol id="svg_1" viewBox="0 0 512 512" xmlns="http://www.w3.org/2000/svg">
   <!--! Font Awesome Pro 6.4.0 by @fontawesome - https://fontawesome.com License - https://fontawesome.com/license (Commercial License) Copyright 2023 Fonticons, Inc. -->
   <path d="m64,64c0,-17.7 -14.3,-32 -32,-32s-32,14.3 -32,32l0,336c0,44.2 35.8,80 80,80l400,0c17.7,0 32,-14.3 32,-32s-14.3,-32 -32,-32l-400,0c-8.8,0 -16,-7.2 -16,-16l0,-336zm406.6,86.6c12.5,-12.5 12.5,-32.8 0,-45.3s-32.8,-12.5 -45.3,0l-105.3,105.4l-57.4,-57.4c-12.5,-12.5 -32.8,-12.5 -45.3,0l-112,112c-12.5,12.5 -12.5,32.8 0,45.3s32.8,12.5 45.3,0l89.4,-89.3l57.4,57.4c12.5,12.5 32.8,12.5 45.3,0l128,-128l-0.1,-0.1z"/>
  </symbol>
 </defs>
 <g class="layer">
  <title>Layer 1</title>
  <use fill="#6cdac1" id="svg_2" transform="matrix(0.333333 0 0 0.333333 0 0)" x="0" xlink:href="#svg_1" y="0"/>
 </g>
</svg>