<?xml version="1.0"?>
<svg width="448" height="512" xmlns="http://www.w3.org/2000/svg" xmlns:svg="http://www.w3.org/2000/svg" xmlns:xlink="http://www.w3.org/1999/xlink">
 <!-- Created with SVG-edit - https://github.com/SVG-Edit/svgedit-->
 <defs>
  <symbol id="svg_1" viewBox="0 0 512 512" xmlns="http://www.w3.org/2000/svg">
   <!--! Font Awesome Pro 6.4.0 by @fontawesome - https://fontawesome.com License - https://fontawesome.com/license (Commercial License) Copyright 2023 Fonticons, Inc. -->
   <path d="m16.1,260.2c-22.6,12.9 -20.5,47.3 3.6,57.3l140.3,58.5l0,103.3c0,18.1 14.6,32.7 32.7,32.7c9.7,0 18.9,-4.3 25.1,-11.8l62,-74.3l123.9,51.6c18.9,7.9 40.8,-4.5 43.9,-24.7l64,-416c1.9,-12.1 -3.4,-24.3 -13.5,-31.2s-23.3,-7.5 -34,-1.4l-448,256zm52.1,25.5l341.5,-195.1l-219.6,245.4l1.2,1l-123.1,-51.3zm335.1,139.7l-166.6,-69.5l214.1,-239.3l-47.5,308.8z"/>
  </symbol>
 </defs>
 <g class="layer">
  <title>Layer 1</title>
  <use fill="#ff796d" id="svg_2" transform="matrix(0.333333 0 0 0.333333 0 0)" x="0" xlink:href="#svg_1" y="0"/>
 </g>
</svg>