<?xml version="1.0"?>
<svg width="448" height="512" xmlns="http://www.w3.org/2000/svg" xmlns:svg="http://www.w3.org/2000/svg" xmlns:xlink="http://www.w3.org/1999/xlink">
 <!-- Created with SVG-edit - https://github.com/SVG-Edit/svgedit-->
 <defs>
  <symbol id="svg_1" viewBox="0 0 512 512" xmlns="http://www.w3.org/2000/svg">
   <!--! Font Awesome Pro 6.4.0 by @fontawesome - https://fontawesome.com License - https://fontawesome.com/license (Commercial License) Copyright 2023 Fonticons, Inc. -->
   <path d="m323.8,34.8c-38.2,-10.9 -78.1,11.2 -89,49.4l-5.7,20c-3.7,13 -10.4,25 -19.5,35l-51.3,56.4c-8.9,9.8 -8.2,25 1.6,33.9s25,8.2 33.9,-1.6l51.3,-56.4c14.1,-15.5 24.4,-34 30.1,-54.1l5.7,-20c3.6,-12.7 16.9,-20.1 29.7,-16.5s20.1,16.9 16.5,29.7l-5.7,20c-5.7,19.9 -14.7,38.7 -26.6,55.5c-5.2,7.3 -5.8,16.9 -1.7,24.9s12.3,13 21.3,13l133.6,0c8.8,0 16,7.2 16,16c0,6.8 -4.3,12.7 -10.4,15c-7.4,2.8 -13,9 -14.9,16.7s0.1,15.8 5.3,21.7c2.5,2.8 4,6.5 4,10.6c0,7.8 -5.6,14.3 -13,15.7c-8.2,1.6 -15.1,7.3 -18,15.1s-1.6,16.7 3.6,23.3c2.1,2.7 3.4,6.1 3.4,9.9c0,6.7 -4.2,12.6 -10.2,14.9c-11.5,4.5 -17.7,16.9 -14.4,28.8c0.4,1.3 0.6,2.8 0.6,4.3c0,8.8 -7.2,16 -16,16l-97.5,0c-12.6,0 -25,-3.7 -35.5,-10.7l-61.7,-41.1c-11,-7.4 -25.9,-4.4 -33.3,6.7s-4.4,25.9 6.7,33.3l61.7,41.1c18.4,12.3 40,18.8 62.1,18.8l97.5,0c34.7,0 62.9,-27.6 64,-62c14.6,-11.7 24,-29.7 24,-50c0,-4.5 -0.5,-8.8 -1.3,-13c15.4,-11.7 25.3,-30.2 25.3,-51c0,-6.5 -1,-12.8 -2.8,-18.7c11.6,-11.7 18.8,-27.7 18.8,-45.4c0,-35.3 -28.6,-64 -64,-64l-92.3,0c4.7,-10.4 8.7,-21.2 11.8,-32.2l5.7,-20c10.9,-38.2 -11.2,-78.1 -49.4,-89zm-291.8,157.2c-17.7,0 -32,14.3 -32,32l0,224c0,17.7 14.3,32 32,32l64,0c17.7,0 32,-14.3 32,-32l0,-224c0,-17.7 -14.3,-32 -32,-32l-64,0z"/>
  </symbol>
 </defs>
 <g class="layer">
  <title>Layer 1</title>
  <use fill="#6cdac1" id="svg_2" transform="matrix(0.333333 0 0 0.333333 0 0)" x="0" xlink:href="#svg_1" y="0"/>
 </g>
</svg>