<?xml version="1.0"?>
<svg width="448" height="512" xmlns="http://www.w3.org/2000/svg" xmlns:svg="http://www.w3.org/2000/svg" xmlns:xlink="http://www.w3.org/1999/xlink">
 <!-- Created with SVG-edit - https://github.com/SVG-Edit/svgedit-->
 <defs>
  <symbol id="svg_1" viewBox="0 0 448 512" xmlns="http://www.w3.org/2000/svg">
   <!--! Font Awesome Pro 6.4.0 by @fontawesome - https://fontawesome.com License - https://fontawesome.com/license (Commercial License) Copyright 2023 Fonticons, Inc. -->
   <path d="m224,256a128,128 0 1 1 0,-256a128,128 0 1 1 0,256zm-14.9,103.2l-18.6,-31c-6.4,-10.7 1.3,-24.2 13.7,-24.2l19.8,0l19.7,0c12.4,0 20.1,13.6 13.7,24.2l-18.6,31l33.4,123.9l36,-146.9c2,-8.1 9.8,-13.4 17.9,-11.3c70.1,17.6 121.9,81 121.9,156.4c0,17 -13.8,30.7 -30.7,30.7l-131.8,0c-2.1,0 -4,-0.4 -5.8,-1.1l0.3,1.1l-112,0l0.3,-1.1c-1.8,0.7 -3.8,1.1 -5.8,1.1l-131.8,0c-16.9,0 -30.7,-13.8 -30.7,-30.7c0,-75.5 51.9,-138.9 121.9,-156.4c8.1,-2 15.9,3.3 17.9,11.3l36,146.9l33.4,-123.9l-0.1,0z"/>
  </symbol>
 </defs>
 <g class="layer">
  <title>Layer 1</title>
  <use fill="#377dff" id="svg_2" transform="matrix(0.380952 0 0 0.380952 0 0)" x="0" xlink:href="#svg_1" y="0"/>
 </g>
</svg>